<svg data-v-0dd9719b="" version="1.0" xmlns="http://www.w3.org/2000/svg" xmlns:xlink="http://www.w3.org/1999/xlink" width="100%" height="100%" viewBox="0 0 340.000000 250.000000" preserveAspectRatio="xMidYMid meet" color-interpolation-filters="sRGB" style="margin: auto;"> <rect data-v-0dd9719b="" x="0" y="0" width="100%" height="100%" fill="#fff" fill-opacity="1" class="background"></rect> <rect data-v-0dd9719b="" x="0" y="0" width="100%" height="100%" fill="url(#watermark)" fill-opacity="1" class="watermarklayer"></rect> <g data-v-0dd9719b="" fill="#333" class="icon-text-wrapper icon-svg-group iconsvg" transform="translate(48.839996337890625,96.63093376159668)"><g class="iconsvg-imagesvg" transform="translate(0,3.490964889526367)"><g><rect fill="#333" fill-opacity="0" stroke-width="2" x="0" y="0" width="60" height="49.75619464623345" class="image-rect"></rect> <svg x="0" y="0" width="60" height="49.75619464623345" filtersec="colorsb6731494382" class="image-svg-svg primary" style="overflow: visible;"><svg xmlns="http://www.w3.org/2000/svg" viewBox="0 0 123 102"><path d="M45.4 0H0v67h9V11h45.4c-3.6-4-6.7-8.4-9-11z" fill="#00a9de"></path><path d="M58 16H13v67h10V28h44c-3-4-6.1-8-9-12z" fill="#55924e"></path><path d="M71.7 33H28v68h9V46h43.7c-2.4-4-5.6-7-9-13z" fill="#d06ebf"></path><path d="M115 35v55H69c3.5 5 6.7 9 9 12h45V35z" fill="#00a9de"></path><path d="M110 19h-10v55H56.4c3 3.5 6.1 8 9 11H110z" fill="#55924e"></path><path d="M95 1h-9v55H42.6c2.5 3 5.6 7 9 12H95z" fill="#d06ebf"></path></svg></svg> <!----></g></g> <g transform="translate(67,0)"><g data-gra="path-name" fill-rule="" class="tp-name iconsvg-namesvg" transform="translate(0,0)"><g transform="scale(1)"><g><path d="M42.61-28.44L42.61-35.46 1.84-35.46 1.84-28.44 13.59-28.44 13.54-24.97 4.09-24.97 4.09 4.46 40.37 4.46 40.37-24.97 30.33-24.97 30.33-28.44ZM23.49-24.52L20.34-24.52 20.34-28.44 23.54-28.44ZM13.81-18.22L13.81-18.04C13.81-13.5 12.82-11.16 10.75-8.82L10.75-18.22ZM10.75-2.79L10.75-7.29 16.11-4.32C18.99-7.92 20.43-10.3 20.43-17.41L20.38-18.22 23.31-18.22 23.36-11.47C23.36-7.47 24.66-6.25 28.57-6.25L33.75-6.25 33.75-2.79ZM33.75-12.78L31.63-12.78C30.42-12.78 29.97-13.18 29.97-14.45L29.97-18.22 33.75-18.22ZM55.44-27.09L78.07-27.09 78.07-23.71 85.23-23.71 85.23-33.98 71.5-33.98C71.19-35.19 70.97-36.54 70.83-36.72L62.28-36.72 63.09-33.98 48.42-33.98 48.42-23.71 55.44-23.71ZM87.21-14.31L87.21-21.15 66.87-21.15C67.41-22.36 67.86-23.45 68.35-24.48L60.57-26.01C59.89-24.43 59.22-22.81 58.45-21.15L46.26-21.15 46.26-14.31 54.72-14.31C53.5-12.38 52.2-10.48 50.8-8.55 53.68-7.42 57.02-6.12 60.61-4.54 57.02-3.46 52.47-2.83 46.57-2.34L50.13 5.22C58.99 3.73 65.16 1.98 69.66-0.58 74.16 1.4 78.61 3.42 82.57 5.35L85.59-1.35C82.17-2.79 78.97-4.23 75.73-5.63 77.67-7.96 79.2-10.75 80.69-14.31ZM68.44-8.69C65.92-9.72 63.58-10.57 61.29-11.34 61.96-12.2 62.55-13.23 63.22-14.31L72.31-14.31C71.28-12.01 70.11-10.26 68.44-8.69ZM131.94-10.39L131.94-16.34 128.88-16.34C128.92-19.39 128.92-22.54 129.06-25.79L109.71-25.79C110.2-26.5 110.56-27.27 111.06-28.04L130.5-28.04 130.5-34.24 114.07-34.24C114.39-34.96 114.61-35.73 114.93-36.45L107.69-36.81C106.33-33.12 103.77-28.66 101.25-25.79L104.67-23.45 104.04-16.34 101.56-16.34 101.56-11.74 95.85-13.59C94.77-8.78 92.92-2.16 91.13 2.79L97.83 4.91C99.04 1.17 100.84-5.98 101.92-10.39L103.5-10.39 102.64-0.72 121.59-0.72C121.45 0.58 120.96 0.77 119.56 0.9L115.74 1.26 117.54 5.35 122.63 5C127.17 4.63 128.16 4.23 128.52-0.72L130.63-0.72 130.63-6.48 128.66-6.48 128.75-10.39ZM103.14-31.9C101.34-33.34 97.92-35.59 95.8-36.63L91.93-31.36C93.82-30.29 97.42-27.54 99.36-26.1ZM102.46-21.02C100.71-22.41 97.38-24.88 95.08-26.19L90.99-21.02C92.92-19.66 96.16-17.05 98.37-15.12ZM111.06-20.38L114.79-20.38 112.95-18.63C113.8-18.04 114.88-17.19 115.83-16.34L110.66-16.34ZM122.22-16.34L118.53-16.34 120.33-18.13C119.79-18.63 118.57-19.53 117.45-20.38L122.35-20.38ZM110.07-10.39L113.98-10.39 112.32-8.82C113.08-8.23 114.21-7.33 115.16-6.48L109.71-6.48ZM121.86-6.48L117.85-6.48 119.66-8.28C119.16-8.78 118.08-9.63 117-10.39L121.99-10.39ZM177.16-3.1C171-4.18 166.09-5.8 162-8.1 165.55-12.2 167.85-17.14 169.65-23.76L175.81-23.76 175.81-31 160.56-31C160.38-32.58 160.15-34.38 159.84-36.67L151.02-36.27C151.47-34.38 151.83-32.63 152.1-31L135.94-31 135.94-23.76 141.79-23.76C143.55-17.41 146.02-12.33 149.67-8.19 145.89-6.17 141.07-4.46 134.73-2.83L138.87 4.95C146.11 2.65 151.6 0.22 155.92-2.7 160.42 0.36 166 2.7 173.16 4.81ZM161.41-23.76C160.2-19.21 158.53-15.71 155.83-12.82 153-15.79 151.06-19.44 150.03-23.76Z" transform="translate(-1.840000033378601, 36.810001373291016)"></path></g> <!----> <!----> <!----> <!----> <!----> <!----> <!----></g></g> <g data-gra="path-slogan" fill-rule="" class="tp-slogan iconsvg-slogansvg" fill="#333" transform="translate(5,48.15999984741211)"><rect x="0" height="1" y="3.7899999618530273" width="39.58000564575195"></rect> <rect height="1" y="3.7899999618530273" width="39.58000564575195" x="125.7400016784668"></rect> <g transform="translate(42.58000564575195,0)"><g transform="scale(1)"><path d="M7.64-8.58L4.73-4.41L7.78 0L6.33 0L3.98-3.52L1.64 0L0.23 0L3.33-4.41L0.42-8.58L1.88-8.58L4.03-5.30L6.23-8.58L7.64-8.58ZM9.05-8.58L10.22-8.58L10.22 0L9.05 0L9.05-8.58ZM12.89-5.53L12-5.53L12-8.58L12.89-8.58L12.89-5.53ZM20.11 0L19.27-2.48L15.80-2.48L14.91 0L13.73 0L16.97-8.58L18.28-8.58L21.38 0L20.11 0ZM17.53-7.31L16.17-3.52L18.84-3.52L17.58-7.31L17.53-7.31ZM23.81-8.58L28.13-1.64L28.13-8.58L29.25-8.58L29.25 0L27.94 0L23.58-6.94L23.53-6.94L23.53 0L22.41 0L22.41-8.58L23.81-8.58ZM35.53-5.06L40.03-5.06L40.03-8.58L41.20-8.58L41.20 0L40.03 0L40.03-3.98L35.53-3.98L35.53 0L34.36 0L34.36-8.58L35.53-8.58L35.53-5.06ZM48.66 0L47.81-2.48L44.34-2.48L43.45 0L42.28 0L45.52-8.58L46.83-8.58L49.92 0L48.66 0ZM46.08-7.31L44.72-3.52L47.39-3.52L46.13-7.31L46.08-7.31ZM51.14-8.58L52.31-8.58L52.31 0L51.14 0L51.14-8.58ZM59.06-7.13L59.02-7.13L57.05 0L55.83 0L53.58-8.58L54.80-8.58L56.44-1.59L56.48-1.59L58.41-8.58L59.67-8.58L61.59-1.59L61.64-1.59L63.23-8.58L64.50-8.58L62.25 0L61.03 0L59.06-7.13ZM66.89-1.03L72.05-1.03L72.05 0L65.72 0L65.72-8.58L71.95-8.58L71.95-7.59L66.89-7.59L66.89-4.92L71.58-4.92L71.58-3.89L66.89-3.89L66.89-1.03ZM74.95-8.58L79.27-1.64L79.27-8.58L80.39-8.58L80.39 0L79.08 0L74.72-6.94L74.67-6.94L74.67 0L73.55 0L73.55-8.58L74.95-8.58Z" transform="translate(-0.234375, 8.578125)"></path></g></g></g></g></g><defs v-gra="od"></defs></svg>